<svg xmlns="http://www.w3.org/2000/svg" viewBox="0 0 320 180" fill="none" stroke="currentColor" stroke-width="1.4" stroke-linecap="square"><path d="M109 90 L108.8 28.0 A62 62 0 1 1 75.6 142.3 Z" fill="currentColor" fill-opacity="0.08"/><path d="M109 90 L75.6 142.3 A62 62 0 0 1 49.8 70.8 Z" fill="currentColor" fill-opacity="0.17"/><path d="M109 90 L49.8 70.8 A62 62 0 0 1 82.4 33.9 Z" fill="currentColor" fill-opacity="0.26"/><path d="M109 90 L82.4 33.9 A62 62 0 0 1 108.8 28.0 Z" fill="currentColor" fill-opacity="0.35"/><rect x="211" y="44" width="14" height="10" fill="currentColor" fill-opacity="0.08"/><path d="M233 53 L298 53"/><rect x="211" y="70" width="14" height="10" fill="currentColor" fill-opacity="0.17"/><path d="M233 79 L298 79"/><rect x="211" y="96" width="14" height="10" fill="currentColor" fill-opacity="0.26"/><path d="M233 105 L298 105"/><rect x="211" y="122" width="14" height="10" fill="currentColor" fill-opacity="0.35"/><path d="M233 131 L298 131"/></svg>